PathFileType	4	(X/Y/Z)	Kaydara																																																																																																																									
DataRate	CameraRate	NumFrames	NumMarkers	Units	OrigDataRate	OrigDataStartFrame	OrigNumFrames																																																																																																																					
30	30	4	41	mm	30	20	158																																																																																																																					
Frame#	Time	NABA_LFHD			NABA_RFHD			NABA_LBHD			NABA_RBHD			NABA_LFTShould			NABA_RFTShould			NABA_LRRShould			NABA_RRRShould			NABA_T10			NABA_STRN			NABA_TRUN			NABA_LSHO			NABA_LUPA			NABA_LELB			NABA_LFRM			NABA_LWRA			NABA_LWRB			NABA_LFIN			NABA_RSHO			NABA_RUPA			NABA_RELB			NABA_RFRM			NABA_RWRA			NABA_RWRB			NABA_RFIN			NABA_LFWT			NABA_RFWT			NABA_LBWT			NABA_RBWT			NABA_LTHI			NABA_LKNE			NABA_LSHN			NABA_LANK			NABA_LHEE			NABA_LTOE			NABA_RTHI			NABA_RKNE			NABA_RSHN			NABA_RANK			NABA_RHEE			NABA_RTOE		
		X1	Y1	Z1	X2	Y2	Z2	X3	Y3	Z3	X4	Y4	Z4	X5	Y5	Z5	X6	Y6	Z6	X7	Y7	Z7	X8	Y8	Z8	X9	Y9	Z9	X10	Y10	Z10	X11	Y11	Z11	X12	Y12	Z12	X13	Y13	Z13	X14	Y14	Z14	X15	Y15	Z15	X16	Y16	Z16	X17	Y17	Z17	X18	Y18	Z18	X19	Y19	Z19	X20	Y20	Z20	X21	Y21	Z21	X22	Y22	Z22	X23	Y23	Z23	X24	Y24	Z24	X25	Y25	Z25	X26	Y26	Z26	X27	Y27	Z27	X28	Y28	Z28	X29	Y29	Z29	X30	Y30	Z30	X31	Y31	Z31	X32	Y32	Z32	X33	Y33	Z33	X34	Y34	Z34	X35	Y35	Z35	X36	Y36	Z36	X37	Y37	Z37	X38	Y38	Z38	X39	Y39	Z39	X40	Y40	Z40	X41	Y41	Z41
																																																																																																																												
20	0.643	244.95249	1613.97614	-1908.10974	74.755	1594.58282	-1881.23642	256.27949	1589.59686	-2032.01157	40.61711	1581.8161	-1975.76584	233.58139	1341.17065	-1932.34741	85.69004	1322.38235	-1928.08578	231.88589	1389.23996	-2057.28653	79.83651	1382.97485	-2043.30002	165.61819	1218.65585	-2111.36826	169.47014	1287.72766	-1879.20517	175.66637	1192.62749	-1825.53299	329.8312	1362.5914	-1990.64133	384.16862	1124.5118	-2026.7157	393.98567	1037.85149	-2001.06506	383.70392	965.10513	-2020.0563	333.32561	822.5943	-1935.16434	404.75506	821.88217	-1940.98267	386.91597	765.15205	-1894.8172	0.6337	1351.28769	-1972.72446	-42.02376	1141.46355	-2041.20972	-69.93702	1025.23651	-1995.16968	-71.39134	931.31859	-1983.00964	-3.84722	814.04404	-1901.76163	-77.77318	801.0939	-1899.88251	-60.19783	766.01715	-1865.5867	298.12105	947.32803	-1920.27695	31.60409	945.88257	-1915.62912	242.56214	999.81064	-2086.70349	76.96875	1031.09268	-2085.72617	297.35823	656.68083	-2076.15753	298.11472	503.98907	-2030.49957	251.91765	307.87437	-2018.49777	278.22916	161.0232	-2095.20493	218.98573	112.67035	-2147.37274	248.808	81.00521	-1973.60611	30.89059	669.27025	-2076.70959	45.69374	500.41058	-1976.88858	53.88252	330.57632	-2011.3266	46.7667	143.5837	-2088.74512	91.5196	100.02577	-2157.85782	69.32292	82.3316	-1978.47855
21	0.677	244.89603	1613.67874	-1906.53641	75.12484	1594.17542	-1879.3335	256.1228	1589.28772	-2030.54489	40.6087	1581.47522	-1974.02985	233.79503	1340.94727	-1931.14044	85.48073	1321.96121	-1926.11572	231.58247	1389.04968	-2055.82672	79.58356	1382.84576	-2041.37283	165.01787	1218.52432	-2109.84497	169.57794	1287.41135	-1877.82242	175.93645	1192.15187	-1824.13055	329.71203	1362.20703	-1989.46136	383.7965	1124.36005	-2026.57578	393.71826	1037.56271	-2001.08978	383.46283	964.96895	-2020.50644	333.84983	821.65077	-1936.66183	405.12161	821.26106	-1942.47452	387.59789	764.14467	-1896.6423	0.49926	1351.05637	-1970.68207	-42.38697	1141.12679	-2038.99551	-69.84331	1024.91646	-1992.75101	-71.26989	931.0128	-1980.65521	-3.38929	813.65196	-1899.80118	-77.31789	800.67413	-1897.5618	-59.54112	765.73662	-1863.43674	297.91304	946.97876	-1919.51492	31.34051	945.55649	-1914.3515	242.09295	999.69429	-2085.75714	76.53837	1031.03157	-2084.44138	297.24583	656.40968	-2075.28992	297.9726	503.69694	-2029.48273	251.74829	307.46761	-2017.91382	278.17471	160.88375	-2094.98474	219.09519	112.52107	-2147.40875	248.6941	81.04589	-1973.73444	30.42114	669.06502	-2075.75043	45.49007	500.14416	-1976.08734	53.5412	330.29484	-2010.75333	46.74473	143.4398	-2088.71368	91.39603	99.90044	-2157.9007	69.28661	82.31799	-1978.51868
22	0.71	245.14013	1613.33817	-1904.99481	75.38747	1593.9035	-1877.34756	256.08633	1588.81699	-2028.87421	40.59656	1581.21246	-1971.987	234.11621	1340.71747	-1929.72992	85.92364	1321.83823	-1924.07455	231.26879	1388.88168	-2054.12872	79.29905	1382.63	-2039.15482	164.44736	1218.37418	-2108.11157	169.90543	1286.94946	-1875.91629	176.34144	1191.65062	-1822.47284	329.64291	1361.86172	-1988.02841	383.37551	1124.15817	-2026.19629	393.52531	1037.30797	-2001.06476	383.21514	964.8838	-2020.82901	334.39133	820.60867	-1937.93411	405.59326	820.65376	-1943.98224	388.41209	763.16498	-1898.53546	0.49778	1350.74829	-1968.134	-42.60654	1140.78346	-2036.31744	-69.73517	1024.51134	-1990.08881	-71.13208	930.65903	-1978.31696	-2.71512	813.21861	-1897.84714	-76.83665	800.1107	-1895.49713	-58.89224	765.04219	-1861.53687	297.69562	946.48979	-1918.51624	31.09415	945.13695	-1912.81906	241.65627	999.4371	-2084.58771	76.10135	1030.86121	-2082.96783	297.0657	656.07742	-2074.22699	297.86789	503.36037	-2028.32779	251.61007	307.05862	-2017.22839	278.10654	160.6773	-2094.68018	219.15699	112.44906	-2147.40509	248.55684	81.06226	-1973.82751	29.93467	668.85017	-2074.53156	45.30095	499.87118	-1975.07507	54.05613	330.04852	-2010.81009	46.66514	143.33115	-2088.53439	91.21465	99.88226	-2157.84592	69.23607	82.32458	-1978.56094
23	0.743	245.43322	1612.93823	-1902.91229	75.60105	1593.68027	-1875.12115	256.14996	1588.45322	-2026.87057	40.7859	1581.01074	-1969.60037	234.25123	1340.44434	-1927.81555	86.0773	1321.44592	-1921.70441	231.06899	1388.73688	-2052.21237	79.0394	1382.50839	-2036.69952	163.934	1218.27454	-2106.10504	170.24689	1286.45874	-1873.76022	176.77107	1191.14136	-1820.58685	329.68414	1361.54709	-1986.47064	383.01392	1123.94165	-2025.56778	393.35144	1037.0488	-2000.85938	383.00529	964.82368	-2021.02402	335.07374	819.84085	-1939.0361	406.05038	820.0647	-1945.30106	389.24812	762.23183	-1900.23087	0.53409	1350.50171	-1965.31937	-42.90314	1140.57976	-2033.48602	-69.63125	1024.26346	-1987.36664	-70.99956	930.39658	-1975.8606	-2.25674	812.56561	-1896.34216	-76.34164	799.53102	-1893.64761	-58.27909	764.25682	-1859.9205	297.66209	946.15959	-1917.08633	31.02042	944.90028	-1910.81482	241.25486	999.2675	-2082.98065	75.7545	1030.7328	-2080.99014	296.86314	656.01173	-2073.07877	297.71753	503.20686	-2027.37656	251.49687	306.85289	-2016.66199	278.04342	160.60377	-2094.46228	219.19483	112.49232	-2147.3793	248.47279	81.06388	-1973.90396	29.55218	668.74954	-2073.08243	45.25027	499.71302	-1974.30511	53.3171	329.77947	-2009.56573	46.57613	143.32837	-2088.44635	91.09839	99.94373	-2157.83646	69.20504	82.31331	-1978.52905
